<svg width="20" height="20" viewBox="0 0 20 20" fill="none" xmlns="http://www.w3.org/2000/svg">
<path d="M15.1497 13.162C17.8123 9.40228 16.9218 4.19611 13.162 1.53419C9.40228 -1.12773 4.19611 -0.237881 1.53419 3.52252C-1.12773 7.28228 -0.237881 12.4878 3.52252 15.1497C6.20606 17.0497 9.75402 17.1959 12.5845 15.5244L16.9888 19.3938C17.6529 20.0928 18.7577 20.1208 19.4568 19.4568C20.1558 18.7934 20.1838 17.6885 19.5204 16.9895C19.4994 16.9672 19.479 16.9469 19.4568 16.9259L15.1497 13.162ZM8.33687 13.732C5.36583 13.7326 2.95706 11.3257 2.95515 8.35468C2.95451 5.38364 5.36137 2.97487 8.33306 2.9736C11.3003 2.97232 13.7078 5.37537 13.7135 8.3426C13.7186 11.3143 11.313 13.7269 8.34069 13.732H8.33687Z" fill="#D1DFFD"/>
</svg>
