<svg width="22" height="22" viewBox="0 0 22 22" fill="none" xmlns="http://www.w3.org/2000/svg">
<path d="M20.1668 4.66889C19.3479 2.98834 16.989 1.61334 14.2451 2.41389C12.9339 2.79262 11.79 3.60482 11.0001 4.71778C10.2102 3.60482 9.06625 2.79262 7.75508 2.41389C5.00508 1.62556 2.6523 2.98834 1.83341 4.66889C0.684526 7.02167 1.16119 9.66778 3.25119 12.5339C4.88897 14.7767 7.22953 17.05 10.6273 19.69C10.7347 19.7738 10.867 19.8192 11.0031 19.8192C11.1393 19.8192 11.2716 19.7738 11.379 19.69C14.7706 17.0561 17.1173 14.8011 18.7551 12.5339C20.839 9.66778 21.3156 7.02167 20.1668 4.66889Z" fill="#FF0000"/>
</svg>
