<svg width="17" height="17" viewBox="0 0 17 17" fill="none" xmlns="http://www.w3.org/2000/svg">
<g clip-path="url(#clip0_106_341)">
<path d="M0 8.51659C0 6.97549 0.381588 5.55053 1.14476 4.2417C1.90794 2.93288 2.94209 1.89872 4.24723 1.13923C5.55237 0.379744 6.97181 0 8.50553 0C9.65582 0 10.7545 0.224897 11.8016 0.674691C12.8486 1.12448 13.7519 1.72913 14.5114 2.48861C15.2709 3.2481 15.8755 4.15322 16.3253 5.20397C16.7751 6.25472 17 7.35892 17 8.51659C17 9.66688 16.7751 10.7674 16.3253 11.8182C15.8755 12.8689 15.2709 13.7722 14.5114 14.528C13.7519 15.2838 12.8486 15.8847 11.8016 16.3308C10.7545 16.7769 9.65582 17 8.50553 17C7.34786 17 6.24366 16.7751 5.19291 16.3253C4.14216 15.8755 3.23704 15.2709 2.47755 14.5114C1.71807 13.7519 1.11527 12.8505 0.669161 11.8071C0.223054 10.7637 0 9.66688 0 8.51659ZM1.86923 8.51659C1.86923 10.3084 2.5218 11.8642 3.82694 13.1841C5.13208 14.4893 6.69161 15.1418 8.50553 15.1418C9.70006 15.1418 10.8061 14.845 11.8237 14.2515C12.8412 13.6579 13.6487 12.8523 14.2459 11.8347C14.8432 10.8172 15.1418 9.71113 15.1418 8.51659C15.1418 7.32206 14.8432 6.21416 14.2459 5.19291C13.6487 4.17165 12.8412 3.36424 11.8237 2.77066C10.8061 2.17708 9.70006 1.88029 8.50553 1.88029C7.311 1.88029 6.20494 2.17708 5.18738 2.77066C4.16981 3.36424 3.36239 4.17165 2.76513 5.19291C2.16786 6.21416 1.86923 7.32206 1.86923 8.51659ZM7.85296 8.51659V3.48406C7.85296 3.30709 7.91379 3.15777 8.03546 3.03611C8.15712 2.91444 8.30644 2.85361 8.48341 2.85361C8.66038 2.85361 8.80969 2.91444 8.93136 3.03611C9.05303 3.15777 9.11386 3.30709 9.11386 3.48406V8.12947L11.8237 9.71113C11.9712 9.79961 12.067 9.92681 12.1113 10.0927C12.1555 10.2586 12.1334 10.4153 12.0449 10.5628C11.9269 10.7766 11.7463 10.8835 11.5029 10.8835C11.3776 10.8835 11.2707 10.854 11.1822 10.7951L8.29538 9.11386C8.17003 9.07699 8.06495 9.00325 7.98016 8.89265C7.89536 8.78204 7.85296 8.65669 7.85296 8.51659Z" fill="#AEB3C2"/>
</g>
<defs>
<clipPath id="clip0_106_341">
<rect width="17" height="17" fill="white"/>
</clipPath>
</defs>
</svg>
