<svg width="22" height="22" viewBox="0 0 22 22" fill="none" xmlns="http://www.w3.org/2000/svg">
<path d="M20.3351 10.8496L11.4856 2.00664C11.4219 1.9428 11.3462 1.89215 11.2629 1.85759C11.1796 1.82303 11.0903 1.80524 11.0001 1.80524C10.9099 1.80524 10.8206 1.82303 10.7373 1.85759C10.654 1.89215 10.5783 1.9428 10.5146 2.00664L1.66514 10.8496C1.40732 11.1074 1.26123 11.4576 1.26123 11.8229C1.26123 12.5813 1.87783 13.1979 2.63623 13.1979H3.56865V19.5078C3.56865 19.8881 3.87588 20.1953 4.25615 20.1953H9.6251V15.3828H12.0313V20.1953H17.744C18.1243 20.1953 18.4315 19.8881 18.4315 19.5078V13.1979H19.364C19.7292 13.1979 20.0794 13.0539 20.3372 12.7939C20.8722 12.2568 20.8722 11.3867 20.3351 10.8496Z" fill="#3570EC" fill-opacity="0.54"/>
</svg>
