<svg width="22" height="22" viewBox="0 0 22 22" fill="none" xmlns="http://www.w3.org/2000/svg">
<g clip-path="url(#clip0_106_314)">
<path d="M11 0.000999451C4.9255 0.000999451 0 4.92554 0 11.0005C0 17.0755 4.92502 22 11 22C17.0755 22 22 17.0755 22 11.0005C22 4.92554 17.0755 0.000999451 11 0.000999451ZM11 3.28998C13.01 3.28998 14.6388 4.91925 14.6388 6.9283C14.6388 8.93783 13.01 10.5666 11 10.5666C8.99095 10.5666 7.36216 8.93783 7.36216 6.9283C7.36216 4.91925 8.99095 3.28998 11 3.28998ZM10.9976 19.1242C8.99288 19.1242 7.15681 18.3941 5.74062 17.1857C5.39563 16.8914 5.19656 16.4599 5.19656 16.0072C5.19656 13.9696 6.84565 12.3389 8.88369 12.3389H13.1173C15.1558 12.3389 16.7986 13.9696 16.7986 16.0072C16.7986 16.4604 16.6005 16.8909 16.255 17.1852C14.8393 18.3941 13.0028 19.1242 10.9976 19.1242Z" fill="#3570EC" fill-opacity="0.54"/>
</g>
<defs>
<clipPath id="clip0_106_314">
<rect width="22" height="22" fill="white"/>
</clipPath>
</defs>
</svg>
