<svg width="31" height="31" viewBox="0 0 31 31" fill="none" xmlns="http://www.w3.org/2000/svg">
<path d="M30.9999 15.4999C30.9999 16.9285 30.8759 18.0833 29.4473 18.0833H18.0833V29.4473C18.0833 30.8733 16.9285 30.9999 15.4999 30.9999C14.0714 30.9999 12.9166 30.8733 12.9166 29.4473V18.0833H1.55258C0.126582 18.0833 0 16.9285 0 15.4999C0 14.0714 0.126582 12.9166 1.55258 12.9166H12.9166V1.55258C12.9166 0.123999 14.0714 0 15.4999 0C16.9285 0 18.0833 0.123999 18.0833 1.55258V12.9166H29.4473C30.8759 12.9166 30.9999 14.0714 30.9999 15.4999Z" fill="white"/>
</svg>
