<svg width="22" height="22" viewBox="0 0 22 22" fill="none" xmlns="http://www.w3.org/2000/svg">
<path d="M11.0001 20.9489C11.385 20.94 11.7545 20.7953 12.043 20.5403C12.3315 20.2853 12.5206 19.9365 12.5767 19.5556H9.3623C9.42004 19.9469 9.61795 20.3039 9.91921 20.5602C10.2205 20.8165 10.6046 20.9546 11.0001 20.9489Z" fill="#3570EC" fill-opacity="0.54"/>
<path d="M20.0751 17.1906L19.8673 17.0072C19.2779 16.482 18.7619 15.8798 18.3335 15.2167C17.8655 14.3016 17.585 13.3022 17.5085 12.2772V9.25834C17.506 8.89164 17.4733 8.52577 17.4107 8.16445C16.3755 7.95168 15.4457 7.38774 14.7786 6.56809C14.1116 5.74844 13.7482 4.72346 13.7501 3.66667V3.28167C13.1121 2.96767 12.4266 2.76119 11.7212 2.67056V1.90056C11.7212 1.68419 11.6353 1.47667 11.4823 1.32368C11.3293 1.17068 11.1218 1.08472 10.9054 1.08472C10.689 1.08472 10.4815 1.17068 10.3285 1.32368C10.1755 1.47667 10.0896 1.68419 10.0896 1.90056V2.70111C8.51028 2.9239 7.06492 3.71051 6.02032 4.91574C4.97571 6.12097 4.4024 7.66342 4.40624 9.25834V12.2772C4.3297 13.3022 4.04921 14.3016 3.58124 15.2167C3.16011 15.8781 2.65247 16.4803 2.07179 17.0072L1.86401 17.1906V18.9139H20.0751V17.1906Z" fill="#3570EC" fill-opacity="0.54"/>
<path d="M18.3334 6.72223C20.0209 6.72223 21.3889 5.35421 21.3889 3.66667C21.3889 1.97913 20.0209 0.611115 18.3334 0.611115C16.6459 0.611115 15.2778 1.97913 15.2778 3.66667C15.2778 5.35421 16.6459 6.72223 18.3334 6.72223Z" fill="#3570EC" fill-opacity="0.54"/>
</svg>
