<svg width="21" height="21" viewBox="0 0 21 21" fill="none" xmlns="http://www.w3.org/2000/svg">
<path d="M15.9072 13.8201C18.7028 9.87236 17.7678 4.4059 13.8201 1.61089C9.87236 -1.18411 4.4059 -0.249774 1.61089 3.69863C-1.18411 7.64637 -0.249774 13.1122 3.69863 15.9072C6.51635 17.9021 10.2417 18.0557 13.2137 16.3005L17.8382 20.3634C18.5355 21.0974 19.6956 21.1268 20.4295 20.4295C21.1635 19.733 21.1929 18.5729 20.4963 17.8389C20.4743 17.8155 20.4529 17.7942 20.4295 17.7721L15.9072 13.8201ZM8.75369 14.4185C5.6341 14.4192 3.1049 11.892 3.1029 8.77239C3.10223 5.6528 5.62942 3.1236 8.74968 3.12227C11.8653 3.12093 14.3931 5.64412 14.3991 8.7597C14.4045 11.88 11.8786 14.4132 8.7577 14.4185H8.75369Z" fill="white"/>
</svg>
