<svg width="18" height="18" viewBox="0 0 18 18" fill="none" xmlns="http://www.w3.org/2000/svg">
<path d="M5.25 12.7598L8.55975 12.7485L15.7837 5.59352C16.0672 5.31002 16.2232 4.93352 16.2232 4.53302C16.2232 4.13252 16.0672 3.75602 15.7837 3.47252L14.5942 2.28302C14.0272 1.71602 13.038 1.71902 12.4755 2.28077L5.25 9.43727V12.7598ZM13.5337 3.34352L14.7255 4.53077L13.5277 5.71727L12.3382 4.52852L13.5337 3.34352ZM6.75 10.0628L11.2725 5.58302L12.462 6.77252L7.94025 11.2508L6.75 11.2545V10.0628Z" fill="white"/>
<path d="M3.75 15.75H14.25C15.0773 15.75 15.75 15.0773 15.75 14.25V7.749L14.25 9.249V14.25H6.1185C6.099 14.25 6.07875 14.2575 6.05925 14.2575C6.0345 14.2575 6.00975 14.2507 5.98425 14.25H3.75V3.75H8.88525L10.3853 2.25H3.75C2.92275 2.25 2.25 2.92275 2.25 3.75V14.25C2.25 15.0773 2.92275 15.75 3.75 15.75Z" fill="white"/>
</svg>
